<svg width="2411" height="1971" xmlns="http://www.w3.org/2000/svg" xmlns:xlink="http://www.w3.org/1999/xlink" xml:space="preserve" overflow="hidden"><g transform="translate(-6224 -2690)"><g><path d="M6696.11 4180.65 6667.58 4186.39 6523.71 4228.01 6586.99 4295.47C6680.28 4381.45 6792.46 4447.23 6916.6 4485.86L6920.17 4486.78 6897.61 4469.5C6818.38 4401.04 6750.27 4304.12 6698.73 4187.37ZM6308.15 3682.15 6310.08 3729.29C6321.13 3863.35 6362.63 3988.77 6427.65 4098.61L6486.62 4183.41 6489.75 4182.2C6540.57 4164.69 6593.24 4149.07 6647.53 4135.49L6676.24 4129.58 6663.26 4096.22C6631.06 4001.62 6608.94 3897.08 6599.19 3786.24L6594.65 3682.15ZM6484.91 3133.08 6427.65 3215.41C6362.63 3325.25 6321.13 3450.67 6310.08 3584.73L6308.15 3631.88 6594.65 3631.88 6599.19 3527.79C6608.94 3416.94 6631.06 3312.4 6663.26 3217.8L6675.69 3185.85 6634.55 3177.38ZM6920.17 2827.24 6916.6 2828.16C6792.46 2866.79 6680.28 2932.57 6586.99 3018.55L6521.78 3088.06 6654.6 3126.48 6695.59 3134.73 6698.73 3126.65C6750.27 3009.9 6818.38 2912.98 6897.61 2844.52ZM7174.55 2733 7271.59 2738.17 7303.18 2742.99 7317 2745.22 7284.63 2755.27C7272.03 2760.61 7260.05 2767.13 7248.84 2774.71L7224.36 2794.92 7206.07 2792.22C7195.64 2791.2 7185.13 2790.68 7174.55 2790.68 7005.19 2790.68 6854.62 2923.84 6758.97 3130.37L6752.9 3146.25 6815.72 3158.89C6898.4 3172.07 6984.07 3180.63 7071.98 3184.08L7155.93 3185.72 7155.93 3240.42 7068.46 3238.66C6977.07 3234.99 6888.01 3225.89 6802.06 3211.86L6733.25 3197.7 6708.45 3262.61C6679.56 3356 6660.6 3459.22 6653.9 3568.43L6651.97 3631.88 7155.93 3631.88 7155.93 3682.15 6651.97 3682.15 6653.9 3745.59C6660.6 3854.8 6679.56 3958.02 6708.45 4051.41L6733.79 4117.74 6815.04 4101.02C6900.99 4086.99 6990.06 4077.89 7081.45 4074.21L7155.93 4072.72 7155.93 4127.41 7084.96 4128.79C6997.05 4132.25 6911.38 4140.8 6828.7 4153.99L6753.42 4169.13 6758.97 4183.65C6854.62 4390.18 7005.19 4523.35 7174.55 4523.35L7195.13 4522.34 7217.65 4549.65C7227.18 4559.19 7237.63 4567.82 7248.84 4575.39L7251.64 4576.91 7185.07 4580.46 7174.4 4581 7169.43 4580.75 7077.65 4575.86 7044.23 4570.76 6983.51 4560.97 6946 4551.32 6892.79 4536.86 6854.78 4522.94 6805.99 4504.02 6768.78 4486.09 6723.6 4462.96 6687.95 4441.3 6646.13 4414.18 6612.55 4389.06 6574.08 4358.18 6542.93 4329.86 6507.95 4295.46 6477.27 4261.69 6466.5 4248.86 6466.08 4249.02 6462.02 4244.56 6455.08 4235.26 6452.54 4232.24 6431.18 4203.66 6382.08 4129.75 6368.59 4107.53 6320.12 4007.22 6311.76 3984.35 6283.58 3897 6275.62 3866.01 6255.78 3751.54 6255.77 3751.48C6252.62 3720.42 6251 3688.9 6251 3657L6252.27 3631.88 6252.27 3631.88 6255.77 3562.54 6255.82 3562.22 6269.34 3473.54 6276.5 3444.58 6291.16 3387.53 6302.73 3354.34 6320.79 3304.95 6336.19 3271.14 6357.83 3226.2 6376.71 3193.12 6401.85 3151.71 6423.92 3120.06 6447.82 3088.08 6545.58 2981.74 6571.73 2957.96 6601.72 2933.05 6639.63 2904.68 6671.68 2882.6 6712.56 2857.75 6746.29 2838.76 6790.22 2817.59 6825.14 2801.92 6872.42 2784.61 6907.81 2772.51 6959.4 2759.24 6993.88 2750.94 7053.1 2741.9 7082.93 2737.63Z" stroke="#FFFFFF" stroke-width="45.8333" stroke-linecap="butt" stroke-linejoin="round" stroke-miterlimit="10" stroke-opacity="1" fill="#FFFFFF" fill-rule="evenodd" fill-opacity="1"/><path d="M7280.46 4602.82C7396.7 4635.37 7520.84 4578.65 7557.75 4476.15 7557.81 4475.99 7557.87 4475.83 7557.92 4475.67 7580.7 4480.08 7603.96 4482.3 7627.28 4482.3L7627.65 4482.3C7806.23 4481.9 7950.9 4354.33 7951.37 4196.84L7951.37 4193.61C8128.86 4122.14 8207.04 3937.32 8126 3780.8 8107.72 3745.49 8082.12 3713.51 8050.52 3686.5 8055.44 3679.33 8060 3671.98 8064.2 3664.42 8146.61 3516.78 8077.75 3338.18 7910.37 3265.44 7911.14 3263.2 7911.87 3260.97 7912.53 3258.71 7952.49 3127.19 7863.99 2992 7714.85 2956.76 7714.81 2956.75 7714.76 2956.74 7714.71 2956.73 7704.51 2820.22 7576.03 2714.08 7420.9 2714 7258.07 2713.97 7126.04 2830.35 7126 2973.96 7126 2974.01 7126 2974.05 7126 2974.1L7126 4417.26C7126.2 4502.17 7188.66 4577.21 7280.46 4602.82ZM7192.56 2974.07C7192.47 2863 7294.5 2772.9 7420.44 2772.82 7540.6 2772.74 7640.2 2854.9 7648.15 2960.63L7651.28 3002.6 7697.37 3013.46C7810.99 3040.39 7878.45 3143.33 7848.2 3243.6 7847.67 3245.3 7847.14 3247 7846.54 3248.71L7830.5 3296.22 7880.92 3318.15C8015.2 3376.64 8070.46 3519.95 8004.46 3638.51 8001.13 3644.38 7997.4 3650.51 7993.47 3656.12L7966.22 3696.06 7998.86 3724.01C8110.29 3820.14 8118.02 3976.03 8016.54 4080.38 7990.5 4105.63 7958.92 4125.94 7923.72 4140.11L7884.78 4155.78 7884.78 4196.14C7885.02 4321.45 7770.02 4423.22 7627.92 4423.43 7609.21 4423.46 7590.54 4421.69 7572.27 4418.14L7512.86 4406.67 7496.22 4453.04C7480.87 4490.63 7450.43 4521.96 7410.65 4541.09 7332.93 4572.09 7241.42 4541.64 7206.28 4473.09 7197.29 4455.55 7192.61 4436.52 7192.56 4417.26Z" stroke="#FFFFFF" stroke-width="45.8333" stroke-linecap="butt" stroke-linejoin="miter" stroke-miterlimit="8" stroke-opacity="1" fill="#FFFFFF" fill-rule="evenodd" fill-opacity="1"/><path d="M8020.24 2914C8028.94 2913.97 8037.28 2910.91 8043.46 2905.49L8199.65 2768.39C8211.86 2757.49 8213.45 2740.41 8203.44 2727.88 8191.9 2715.28 8171.01 2713.34 8156.76 2723.54 8155.91 2724.16 8155.08 2724.81 8154.29 2725.5L7998.34 2862.45C7985.93 2873.56 7984.53 2891 7995.02 2903.55 8001.29 2910.14 8010.5 2913.96 8020.24 2914Z" stroke="#FFFFFF" stroke-width="45.8333" stroke-linecap="butt" stroke-linejoin="miter" stroke-miterlimit="8" stroke-opacity="1" fill="#FFFFFF" fill-rule="evenodd" fill-opacity="1"/><path d="M8202.34 3265.33C8205.92 3281.25 8223.46 3291.6 8241.51 3288.43 8243.76 3288.04 8245.96 3287.44 8248.08 3286.64L8473.42 3202.11C8489.38 3196 8498.07 3180.66 8494.01 3165.72 8488.58 3150.21 8469.92 3141.53 8452.34 3146.32 8451.25 3146.61 8450.18 3146.96 8449.13 3147.35L8223.29 3231.94C8208.69 3237.74 8200.16 3251.34 8202.34 3265.33Z" stroke="#FFFFFF" stroke-width="45.8333" stroke-linecap="butt" stroke-linejoin="miter" stroke-miterlimit="8" stroke-opacity="1" fill="#FFFFFF" fill-rule="evenodd" fill-opacity="1"/><path d="M8574.66 3644 8341.06 3644C8323.72 3644.15 8309 3655.16 8306.17 3670.1 8304.34 3686.04 8317.64 3700.25 8335.88 3701.85 8336.99 3701.95 8338.09 3702 8339.2 3702L8572.94 3702C8590.28 3701.86 8605.01 3690.85 8607.83 3675.9 8609.66 3659.96 8596.36 3645.75 8578.12 3644.15 8576.97 3644.04 8575.82 3644 8574.66 3644Z" stroke="#FFFFFF" stroke-width="45.8333" stroke-linecap="butt" stroke-linejoin="miter" stroke-miterlimit="8" stroke-opacity="1" fill="#FFFFFF" fill-rule="evenodd" fill-opacity="1"/><path d="M8525.37 4159.62 8332.57 4083.59C8315.77 4076.95 8296 4083.51 8288.43 4098.24 8287.94 4099.18 8287.51 4100.15 8287.14 4101.13 8282.81 4115.84 8291.1 4131.15 8306.84 4137.51L8499.2 4213.39C8515.99 4220.05 8535.77 4213.53 8543.37 4198.81 8544.35 4196.92 8545.09 4194.95 8545.59 4192.92 8547.97 4179.13 8539.75 4165.6 8525.37 4159.62Z" stroke="#FFFFFF" stroke-width="45.8333" stroke-linecap="butt" stroke-linejoin="miter" stroke-miterlimit="8" stroke-opacity="1" fill="#FFFFFF" fill-rule="evenodd" fill-opacity="1"/><path d="M8014.13 4465.4C8004.41 4478.12 8006.43 4495.15 8018.93 4505.82L8166.52 4629.89C8179.84 4641.08 8200.94 4640.64 8213.65 4628.9 8214.14 4628.44 8214.62 4627.97 8215.09 4627.48 8225.69 4614.71 8223.93 4597 8210.95 4586.06L8063.49 4462.11C8050.17 4450.92 8029.07 4451.37 8016.37 4463.1 8015.58 4463.83 8014.83 4464.6 8014.13 4465.4Z" stroke="#FFFFFF" stroke-width="45.8333" stroke-linecap="butt" stroke-linejoin="miter" stroke-miterlimit="8" stroke-opacity="1" fill="#FFFFFF" fill-rule="evenodd" fill-opacity="1"/><path d="M7601.5 3122.5C7549.69 3199.12 7444.86 3204.79 7313.5 3207.5" stroke="#FFFFFF" stroke-width="87.0833" stroke-linecap="round" stroke-linejoin="round" stroke-miterlimit="10" stroke-opacity="1" fill="none" fill-rule="evenodd"/><path d="M7304.76 4091.58C7446.14 4080.49 7544.08 4110.75 7541.08 4255.82" stroke="#FFFFFF" stroke-width="87.0833" stroke-linecap="round" stroke-linejoin="round" stroke-miterlimit="10" stroke-opacity="1" fill="none" fill-rule="evenodd"/><path d="M7367.85 3675.27C7630.57 3689.53 7827.17 3767.05 7880 4002.71" stroke="#FFFFFF" stroke-width="87.0833" stroke-linecap="round" stroke-linejoin="round" stroke-miterlimit="10" stroke-opacity="1" fill="none" fill-rule="evenodd"/><path d="M7808.5 3414.5C7777.36 3487.94 7719.73 3520.11 7641.5 3540.5" stroke="#FFFFFF" stroke-width="87.0833" stroke-linecap="round" stroke-linejoin="round" stroke-miterlimit="10" stroke-opacity="1" fill="none" fill-rule="evenodd"/></g></g></svg>